<svg width="168" height="44" viewBox="0 0 168 44" fill="none" xmlns="http://www.w3.org/2000/svg">
<path d="M56.436 30V14.7885H61.2645V17.976C61.517 16.882 62.0324 16.0404 62.8109 15.4513C63.6104 14.8411 64.4941 14.5361 65.4619 14.5361C65.9668 14.5361 66.3876 14.5781 66.7242 14.6623V19.1437C66.1562 19.0806 65.6723 19.049 65.2725 19.049C62.6005 19.049 61.2645 20.7427 61.2645 24.13V30H56.436ZM80.7135 28.2011C79.1987 29.716 77.1579 30.4734 74.5911 30.4734C72.0243 30.4734 69.9729 29.716 68.437 28.2011C66.9012 26.6863 66.1332 24.7507 66.1332 22.3943C66.1332 20.0379 66.9012 18.1128 68.437 16.619C69.9729 15.1041 72.0243 14.3467 74.5911 14.3467C77.1579 14.3467 79.1987 15.1041 80.7135 16.619C82.2494 18.1128 83.0173 20.0379 83.0173 22.3943C83.0173 24.7507 82.2494 26.6863 80.7135 28.2011ZM74.5911 26.3707C75.7061 26.3707 76.5898 26.0025 77.242 25.2661C77.8942 24.5298 78.2204 23.5725 78.2204 22.3943C78.2204 21.2161 77.8942 20.2588 77.242 19.5224C76.5898 18.786 75.7061 18.4178 74.5911 18.4178C73.4549 18.4178 72.5608 18.786 71.9085 19.5224C71.2774 20.2588 70.9618 21.2161 70.9618 22.3943C70.9618 23.5725 71.2774 24.5298 71.9085 25.2661C72.5608 26.0025 73.4549 26.3707 74.5911 26.3707ZM91.3667 30.4734C88.884 30.4734 86.9063 29.737 85.4336 28.2643C83.9608 26.7705 83.2244 24.8138 83.2244 22.3943C83.2244 19.9747 83.9608 18.0286 85.4336 16.5558C86.9063 15.0831 88.884 14.3467 91.3667 14.3467C93.6179 14.3467 95.4483 14.9043 96.8579 16.0193C98.2676 17.1344 99.0671 18.6493 99.2564 20.5638H94.4279C94.0702 19.1332 93.0603 18.4178 91.3982 18.4178C90.3463 18.4178 89.5257 18.765 88.9366 19.4593C88.3475 20.1536 88.053 21.1319 88.053 22.3943C88.053 23.6566 88.3475 24.635 88.9366 25.3293C89.5257 26.0236 90.3463 26.3707 91.3982 26.3707C93.0603 26.3707 94.0702 25.6974 94.4279 24.3509H99.2564C99.0671 26.2234 98.2676 27.7172 96.8579 28.8323C95.4483 29.9264 93.6179 30.4734 91.3667 30.4734ZM115.687 30H109.785L104.957 23.4042V30H100.128V7.90866H104.957V21.1319L109.911 14.7885H115.592L109.533 21.984L115.687 30ZM129.713 21.6053C129.713 22.2365 129.671 22.9413 129.586 23.7197H118.351C118.393 24.7086 118.73 25.4765 119.361 26.0236C119.992 26.5706 120.845 26.8441 121.918 26.8441C123.39 26.8441 124.337 26.3707 124.758 25.4239H129.492C129.26 26.9177 128.44 28.138 127.03 29.0848C125.642 30.0105 123.937 30.4734 121.918 30.4734C119.33 30.4734 117.289 29.758 115.795 28.3274C114.301 26.8967 113.554 24.919 113.554 22.3943C113.554 19.9116 114.301 17.955 115.795 16.5243C117.289 15.0726 119.277 14.3467 121.76 14.3467C124.116 14.3467 126.031 15.02 127.504 16.3665C128.976 17.713 129.713 19.4593 129.713 21.6053ZM118.351 20.7216H124.947C124.926 19.7117 124.642 18.9333 124.095 18.3863C123.548 17.8392 122.759 17.5657 121.728 17.5657C120.697 17.5657 119.877 17.8603 119.267 18.4494C118.678 19.0174 118.372 19.7749 118.351 20.7216ZM138.504 26.2445C139.177 26.2445 139.735 26.2129 140.177 26.1498V30C139.251 30.1683 138.178 30.2525 136.958 30.2525C136.411 30.2525 135.927 30.2209 135.506 30.1578C135.085 30.0947 134.612 29.9579 134.086 29.7475C133.56 29.5161 133.129 29.211 132.792 28.8323C132.455 28.4536 132.161 27.9066 131.908 27.1912C131.677 26.4759 131.561 25.6343 131.561 24.6665V18.6072H129.163V14.7885H131.561V10.2756H136.39V14.7885H139.83V18.6072H136.39V23.6566C136.39 24.6876 136.568 25.3819 136.926 25.7395C137.284 26.0762 137.81 26.2445 138.504 26.2445ZM159.872 14.7885H164.669V36.3118H159.84V28.6745H159.872V27.854C159.451 28.6114 158.799 29.2321 157.915 29.716C157.053 30.1788 156.095 30.4103 155.043 30.4103C152.834 30.4103 151.088 29.6634 149.805 28.1696C148.521 26.6758 147.88 24.7507 147.88 22.3943C147.88 20.0799 148.542 18.1654 149.868 16.6505C151.193 15.1357 152.94 14.3783 155.107 14.3783C156.18 14.3783 157.137 14.6097 157.978 15.0726C158.82 15.5354 159.451 16.1666 159.872 16.9661V14.7885ZM156.432 26.4023C157.589 26.4023 158.483 26.0236 159.115 25.2661C159.746 24.5087 160.061 23.5514 160.061 22.3943C160.061 21.2581 159.746 20.3114 159.115 19.554C158.483 18.7965 157.589 18.4178 156.432 18.4178C155.338 18.4178 154.454 18.786 153.781 19.5224C153.129 20.2588 152.803 21.2161 152.803 22.3943C152.803 23.5725 153.129 24.5403 153.781 25.2977C154.454 26.0341 155.338 26.4023 156.432 26.4023Z" fill="#0D114F"/>
<path d="M146.19 29.4004C145.601 30.0105 144.865 30.3156 143.981 30.3156C143.098 30.3156 142.351 30.0105 141.741 29.4004C141.152 28.7902 140.857 28.0644 140.857 27.2228C140.857 26.3602 141.152 25.6343 141.741 25.0452C142.351 24.4351 143.098 24.13 143.981 24.13C144.865 24.13 145.601 24.4351 146.19 25.0452C146.801 25.6343 147.106 26.3602 147.106 27.2228C147.106 28.0644 146.801 28.7902 146.19 29.4004Z" fill="url(#paint0_linear)"/>
<rect x="0.0322266" width="43.832" height="43.832" rx="7.88976" fill="url(#paint1_linear)"/>
<g filter="url(#filter0_di)">
<path d="M33.2903 32.4131H29.3811C29.2176 32.4131 29.0831 32.2854 29.0686 32.1226C29.064 32.0711 29.0591 32.0211 29.0538 31.9726C28.8297 29.9298 26.6306 28.1753 24.5906 28.4238C23.1016 28.6052 21.8674 29.7293 20.3768 29.8976C19.3716 30.0111 18.4944 29.9594 17.4919 29.7629C16.6132 29.5908 15.765 29.2757 14.9843 28.8372C13.1455 27.8044 12.1583 26.741 11.243 25.1387C10.7133 24.2114 10.3353 23.1958 10.1978 22.1368C10.084 21.2603 10.0912 20.4879 10.1868 19.6373C10.3327 18.3379 10.7491 17.0732 11.4287 15.956C12.3828 14.3877 13.4139 13.4126 15.0939 12.4997C15.8055 12.1131 16.571 11.8305 17.362 11.6568C19.3647 11.2169 20.6613 11.3458 22.6082 11.956C23.6914 12.2955 24.8679 13.023 25.8685 13.9723C28.0566 16.0482 28.2235 19.3058 28.2788 22.3215C28.2839 22.601 28.0284 22.8125 27.7533 22.7627C26.402 22.5184 25.4305 22.4987 24.1026 22.7098C23.7466 22.7664 23.4538 22.398 23.5498 22.0506C23.5915 21.8998 23.6241 21.7518 23.6486 21.6059C24.0411 19.2711 22.4435 16.606 20.0871 16.3763C18.7503 16.246 17.4267 16.7918 16.4462 17.8864C15.861 18.4381 15.5373 19.3034 15.4352 20.2262C15.1706 22.6173 17.1264 24.9295 19.5294 25.0439C19.9879 25.0657 20.4305 24.999 20.8829 24.8457C22.3083 24.3625 23.6977 23.6404 25.1985 23.7534C29.7136 24.0934 32.8846 26.1289 33.719 31.9218C33.7564 32.1814 33.5527 32.4131 33.2903 32.4131Z" fill="#FAFAFA"/>
</g>
<defs>
<filter id="filter0_di" x="8.4814" y="11.3964" width="26.8744" height="24.2814" filterUnits="userSpaceOnUse" color-interpolation-filters="sRGB">
<feFlood flood-opacity="0" result="BackgroundImageFix"/>
<feColorMatrix in="SourceAlpha" type="matrix" values="0 0 0 0 0 0 0 0 0 0 0 0 0 0 0 0 0 0 127 0"/>
<feOffset dy="1.63237"/>
<feGaussianBlur stdDeviation="0.816183"/>
<feColorMatrix type="matrix" values="0 0 0 0 0 0 0 0 0 0 0 0 0 0 0 0 0 0 0.07 0"/>
<feBlend mode="normal" in2="BackgroundImageFix" result="effect1_dropShadow"/>
<feBlend mode="normal" in="SourceGraphic" in2="effect1_dropShadow" result="shape"/>
<feColorMatrix in="SourceAlpha" type="matrix" values="0 0 0 0 0 0 0 0 0 0 0 0 0 0 0 0 0 0 127 0" result="hardAlpha"/>
<feOffset dy="1.63237"/>
<feGaussianBlur stdDeviation="1.02023"/>
<feComposite in2="hardAlpha" operator="arithmetic" k2="-1" k3="1"/>
<feColorMatrix type="matrix" values="0 0 0 0 0.219608 0 0 0 0 0.533333 0 0 0 0 1 0 0 0 0.13 0"/>
<feBlend mode="normal" in2="shape" result="effect2_innerShadow"/>
</filter>
<linearGradient id="paint0_linear" x1="189.201" y1="-59.0291" x2="177.602" y2="54.1337" gradientUnits="userSpaceOnUse">
<stop stop-color="#5498FF"/>
<stop offset="0.515625" stop-color="#428EFF"/>
<stop offset="1" stop-color="#297FFF"/>
</linearGradient>
<linearGradient id="paint1_linear" x1="52.4952" y1="-66.3077" x2="19.6451" y2="48.5381" gradientUnits="userSpaceOnUse">
<stop stop-color="#5498FF"/>
<stop offset="0.515625" stop-color="#428EFF"/>
<stop offset="1" stop-color="#297FFF"/>
</linearGradient>
</defs>
</svg>
